<?xml version="1.0" encoding="UTF-8" standalone="no"?>
<!-- Created with Inkscape (http://www.inkscape.org/) -->

<svg
   xmlns:dc="http://purl.org/dc/elements/1.1/"
   xmlns:cc="http://creativecommons.org/ns#"
   xmlns:rdf="http://www.w3.org/1999/02/22-rdf-syntax-ns#"
   xmlns:svg="http://www.w3.org/2000/svg"
   xmlns="http://www.w3.org/2000/svg"
   xmlns:sodipodi="http://sodipodi.sourceforge.net/DTD/sodipodi-0.dtd"
   xmlns:inkscape="http://www.inkscape.org/namespaces/inkscape"
   width="512"
   height="512"
   id="svg2"
   version="1.1"
   inkscape:version="0.48.2 r9819"
   sodipodi:docname="ic_launcher.svg">
  <defs
     id="defs4" />
  <sodipodi:namedview
     id="base"
     pagecolor="#c0c0c0"
     bordercolor="#666666"
     borderopacity="1.0"
     inkscape:pageopacity="1"
     inkscape:pageshadow="2"
     inkscape:zoom="1"
     inkscape:cx="251.91379"
     inkscape:cy="244.12155"
     inkscape:document-units="px"
     inkscape:current-layer="layer1"
     showgrid="false"
     inkscape:window-width="970"
     inkscape:window-height="784"
     inkscape:window-x="0"
     inkscape:window-y="0"
     inkscape:window-maximized="0"
     inkscape:snap-bbox="true"
     inkscape:bbox-nodes="false"
     inkscape:snap-bbox-edge-midpoints="false"
     inkscape:bbox-paths="true"
     showguides="true"
     inkscape:guide-bbox="true"
     inkscape:snap-global="false" />
  <metadata
     id="metadata7">
    <rdf:RDF>
      <cc:Work
         rdf:about="">
        <dc:format>image/svg+xml</dc:format>
        <dc:type
           rdf:resource="http://purl.org/dc/dcmitype/StillImage" />
        <dc:title />
      </cc:Work>
    </rdf:RDF>
  </metadata>
  <g
     inkscape:label="Layer 1"
     inkscape:groupmode="layer"
     id="layer1"
     transform="translate(0,-540.36217)">
    <path
       style="fill:#ffffff;fill-opacity:1;stroke:none"
       d="m 253.46875,545.03125 c -27.52282,0.43689 -55.10809,7.74867 -78.875,21.46875 -34.04025,-5.41102 -68.09485,-10.74278 -102.0625,-16.59375 11.707164,31.51389 23.734128,62.91236 35.75,94.3125 -5.42518,14.45465 -7.32641,30.04703 -8.3125,45.28125 -0.06452,2.21387 -4.516269,-2.17557 -6.3125,-2.1875 -21.551742,-9.25878 -49.034649,-3.37097 -63.09375,15.78125 -10.556874,12.71588 -14.031075,30.15563 -11.081215,46.31202 0.911526,46.81772 -2.789568,93.86001 2.518715,140.50048 10.030845,30.54463 50.813404,43.51528 78,27.8125 0,13.28125 0,26.5625 0,39.84375 14.79875,2.11066 29.76819,-0.6201 44.59375,0.9375 -0.62705,23.45383 -3.49486,50.0029 11.40625,69.9688 19.71634,24.5754 63.02679,26.2345 82.38167,0.3497 15.27434,-18.3804 13.37891,-44.166 12.33708,-66.631 -0.19646,-1.75275 -1.17501,-5.21143 1.8125,-3.875 3.01206,0.0796 6.03338,-0.57454 9.03125,-0.15625 -0.79743,23.00791 -3.12601,49.29475 12.10677,68.42625 20.13619,24.4834 63.89024,25.0525 82.58073,-1.4887 14.39354,-18.3813 12.49971,-43.42828 11.40625,-65.4688 0.90925,-3.6237 10.19947,-0.22906 14.03125,-1.40625 10.125,0 20.25,0 30.375,0 0,-13.75 0,-27.5 0,-41.25 22.0214,12.72417 53.92116,9.13666 69.53125,-11.84375 13.89069,-17.57225 12.27272,-41.58344 10.81956,-62.7499 -0.5234,-42.35562 3.36113,-85.149 -3.25706,-127.15635 -11.33099,-28.72562 -50.26324,-41.14093 -76.53125,-25.34375 -0.0714,-15.98365 -2.76801,-31.97963 -8.28125,-46.96875 11.78982,-30.94573 23.55428,-61.90126 35.1875,-92.90625 -33.70962,5.62199 -67.46061,10.9909 -101.21875,16.3125 -25.65775,-14.47766 -55.29742,-21.88403 -84.84375,-21.28125 z"
       id="path3023-3"
       inkscape:connector-curvature="0" />
    <g
       id="g4014"
       transform="translate(3.8146973e-6,-9.1718655)"
       style="stroke:none">
      <path
         transform="translate(0,540.36217)"
         id="path3023"
         d="m 256.5,37.78125 c -28.75234,0 -55.38318,8.360946 -77.0625,22.5625 L 109.625,49.15625 134.03125,113.0625 C 127.89386,126.92366 124.5,142.04582 124.5,157.90625 l 264,0 c 0,-16.32165 -3.58203,-31.87543 -10.0625,-46.0625 l 23.9375,-62.6875 -69.03125,11.0625 C 311.69876,46.091984 285.16915,37.78125 256.5,37.78125 z"
         style="fill:#ff0000;fill-opacity:1;stroke:#000000;stroke-width:12;stroke-linecap:butt;stroke-linejoin:miter;stroke-miterlimit:4;stroke-opacity:1;stroke-dashoffset:0;stroke-dasharray:none"
         inkscape:connector-curvature="0" />
      <path
         transform="translate(0,540.36217)"
         id="rect3027"
         d="m 123.96875,176 0,227 44.34375,0 0,60.40625 c 0,16.1644 13.02313,29.15625 29.1875,29.15625 16.16437,0 29.1875,-12.99185 29.1875,-29.15625 l 0,-60.40625 58.625,0 0,57.8125 c 0,16.1644 13.02313,29.1875 29.1875,29.1875 16.16437,0 29.1875,-13.0231 29.1875,-29.1875 l 0,-57.8125 44.34375,0 0,-227 -264.0625,0 z"
         style="fill:#a4c739;fill-opacity:1;stroke:#000000;stroke-width:12;stroke-linecap:butt;stroke-linejoin:miter;stroke-miterlimit:4;stroke-opacity:1;stroke-dasharray:none;stroke-dashoffset:0"
         inkscape:connector-curvature="0" />
      <rect
         ry="26.236914"
         rx="29.177563"
         y="716.36218"
         x="43.337311"
         height="193.14835"
         width="58.355125"
         id="rect3029"
         style="fill:#a4c739;fill-opacity:1;stroke:#000000;stroke-width:12;stroke-miterlimit:4;stroke-opacity:1;stroke-dasharray:none" />
      <rect
         ry="26.236914"
         rx="29.177563"
         y="716.36218"
         x="410.30756"
         height="193.14835"
         width="58.355125"
         id="rect3029-3"
         style="fill:#a4c739;fill-opacity:1;stroke:#000000;stroke-width:12;stroke-miterlimit:4;stroke-opacity:1;stroke-dasharray:none" />
    </g>
  </g>
</svg>
